<svg xmlns="http://www.w3.org/2000/svg" width="72" height="72" viewBox="0 0 72 72">
  <defs>
    <linearGradient id="bg" x1="0%" y1="0%" x2="100%" y2="100%">
      <stop offset="0%" stop-color="#0A0F1E"/>
      <stop offset="100%" stop-color="#0D1530"/>
    </linearGradient>
    <linearGradient id="doc" x1="0%" y1="0%" x2="0%" y2="100%">
      <stop offset="0%" stop-color="#1A2540"/>
      <stop offset="100%" stop-color="#111827"/>
    </linearGradient>
    <clipPath id="clip">
      <rect width="72" height="72" rx="16"/>
    </clipPath>
  </defs>
  <g clip-path="url(#clip)">
    <rect width="72" height="72" fill="url(#bg)"/>
    <line x1="0" y1="18.0" x2="72" y2="18.0" stroke="#ffffff" stroke-width="0.3" stroke-opacity="0.04"/>
    <line x1="0" y1="36.0"  x2="72" y2="36.0"  stroke="#ffffff" stroke-width="0.3" stroke-opacity="0.04"/>
    <line x1="0" y1="54.0" x2="72" y2="54.0" stroke="#ffffff" stroke-width="0.3" stroke-opacity="0.04"/>
    <line x1="18.0" y1="0" x2="18.0" y2="72" stroke="#ffffff" stroke-width="0.3" stroke-opacity="0.04"/>
    <line x1="36.0"  y1="0" x2="36.0"  y2="72" stroke="#ffffff" stroke-width="0.3" stroke-opacity="0.04"/>
    <line x1="54.0" y1="0" x2="54.0" y2="72" stroke="#ffffff" stroke-width="0.3" stroke-opacity="0.04"/>
    <circle cx="36.0" cy="36.0" r="25.919999999999998" fill="none" stroke="#00D4AA" stroke-width="0.5" stroke-opacity="0.15"/>
    <circle cx="36.0" cy="36.0" r="21.599999999999998" fill="none" stroke="#00D4AA" stroke-width="0.3" stroke-opacity="0.10"/>
    <rect x="20.88" y="13.68" width="24.48" height="30.959999999999997" rx="2.16" fill="url(#doc)" stroke="#00D4AA" stroke-width="0.8" stroke-opacity="0.5"/>
    <path d="M38.879999999999995 13.68 L45.36 20.16 L38.879999999999995 20.16 Z" fill="#0A0F1E" stroke="#00D4AA" stroke-width="0.5" stroke-opacity="0.4"/>
    <path d="M38.879999999999995 13.68 L45.36 20.16" fill="none" stroke="#00D4AA" stroke-width="0.8" stroke-opacity="0.5"/>
    <line x1="24.48" y1="23.759999999999998" x2="39.6" y2="23.759999999999998" stroke="#00D4AA" stroke-width="1" stroke-opacity="0.7" stroke-linecap="round"/>
    <line x1="24.48" y1="27.36" x2="41.76" y2="27.36" stroke="#00D4AA" stroke-width="0.8" stroke-opacity="0.4" stroke-linecap="round"/>
    <line x1="24.48" y1="30.599999999999998" x2="37.44" y2="30.599999999999998" stroke="#00D4AA" stroke-width="0.8" stroke-opacity="0.4" stroke-linecap="round"/>
    <line x1="24.48" y1="33.839999999999996" x2="40.32" y2="33.839999999999996" stroke="#00D4AA" stroke-width="0.8" stroke-opacity="0.35" stroke-linecap="round"/>
    <line x1="24.48" y1="37.08" x2="35.28" y2="37.08" stroke="#00D4AA" stroke-width="0.8" stroke-opacity="0.3" stroke-linecap="round"/>
    <circle cx="45.36" cy="38.879999999999995" r="5.04" fill="#00D4AA"/>
    <path d="M42.839999999999996 38.879999999999995 L44.64 40.68 L47.879999999999995 37.44" fill="none" stroke="#0A0F1E" stroke-width="1.5" stroke-linecap="round" stroke-linejoin="round"/>
    <text x="36.0" y="54.72" font-family="Arial Black, Arial, sans-serif" font-size="11.52" font-weight="900" fill="#ffffff" text-anchor="middle" letter-spacing="-0.36">CV</text>
    <text x="36.0" y="62.64" font-family="Arial, sans-serif" font-size="4.68" font-weight="700" fill="#00D4AA" text-anchor="middle" letter-spacing="1.08">AGENT</text>
  </g>
</svg>